<svg width="18" height="18" viewBox="0 0 18 18" class="fill-current">
  <path
    d="M17.4657 16.0312L12.5438 12.0375C13.4438 10.8562 13.9501 9.42187 13.9501 7.90312C13.9501 6.07499 13.247 4.38749 11.9532 3.09374C9.30947 0.449994 5.00635 0.449994 2.33447 3.09374C1.06885 4.35937 0.365723 6.07499 0.365723 7.87499C0.365723 9.70312 1.06885 11.3906 2.3626 12.6844C3.68447 14.0062 5.42822 14.6812 7.17197 14.6812C8.8876 14.6812 10.5751 14.0344 11.897 12.7687L16.8751 16.7906C16.9595 16.875 17.072 16.9031 17.1845 16.9031C17.3251 16.9031 17.4657 16.8469 17.5782 16.7344C17.7188 16.5094 17.6907 16.2 17.4657 16.0312ZM3.0376 12.0094C1.94072 10.9125 1.3501 9.44999 1.3501 7.87499C1.3501 6.29999 1.94072 4.86562 3.06572 3.76874C4.19072 2.64374 5.68135 2.08124 7.17197 2.08124C8.6626 2.08124 10.1532 2.64374 11.2782 3.76874C12.3751 4.86562 12.9938 6.32812 12.9938 7.87499C12.9938 9.42187 12.347 10.9125 11.2501 12.0094C9.0001 14.2594 5.31572 14.2594 3.0376 12.0094Z">
  </path>
</svg>